<svg width="64.000000" height="64.000000" viewBox="0 0 64 64" fill="none" xmlns="http://www.w3.org/2000/svg" xmlns:xlink="http://www.w3.org/1999/xlink">
	<desc>
			Created with Pixso.
	</desc>
	<defs/>
	<rect id="Rectangle" rx="32.000000" width="64.000000" height="64.000000" fill="#5D5DFF" fill-opacity="1.000000"/>
	<rect id="Rectangle" rx="32.000000" width="64.000000" height="64.000000" stroke="#979797" stroke-opacity="0" stroke-width="0.000000"/>
	<path id="Path" d="M29 41.99L39.22 41.99C40.1 42 40.88 41.42 41.14 40.58L43.91 31.58C44.09 30.98 43.98 30.32 43.6 29.81C43.23 29.3 42.63 29 42 28.99L35 28.99L35 24.99C35 22.62 33.74 21.5 32.23 21.13C31.93 21.06 31.62 21.14 31.38 21.33C31.14 21.52 31 21.81 31 22.11L31 25.99L26 31.99" stroke="#F4F4FF" stroke-opacity="1.000000" stroke-width="2.000000" stroke-linecap="square"/>
	<rect id="Rectangle" x="22.000000" y="30.000000" width="4.000000" height="12.000000" stroke="#CBCCFF" stroke-opacity="1.000000" stroke-width="2.000000"/>
</svg>
