<svg width="64.000000" height="64.000000" viewBox="0 0 64 64" fill="none" xmlns="http://www.w3.org/2000/svg" xmlns:xlink="http://www.w3.org/1999/xlink">
	<desc>
			Created with Pixso.
	</desc>
	<defs/>
	<rect id="Rectangle" rx="32.000000" width="64.000000" height="64.000000" fill="#5D5DFF" fill-opacity="1.000000"/>
	<rect id="Rectangle" rx="32.000000" width="64.000000" height="64.000000" stroke="#979797" stroke-opacity="0" stroke-width="0.000000"/>
	<path id="Path" d="M39 43L39 36.7C40.87 35.02 41.96 32.64 42 30.13C42.02 25.23 38.15 21.19 33.26 21C30.83 20.92 28.47 21.84 26.72 23.54C24.98 25.23 23.99 27.56 24 30L24 31L22 36L24 37L24 41C24 42.1 24.89 43 26 43L30 43C31.32 43 32.59 42.47 33.53 41.53C34.47 40.59 35 39.32 35 38L35 33" stroke="#F4F4FF" stroke-opacity="1.000000" stroke-width="2.000000" stroke-linecap="square"/>
	<circle id="Oval" cx="35.000000" cy="30.000000" r="3.000000" stroke="#CBCCFF" stroke-opacity="1.000000" stroke-width="2.000000"/>
</svg>
