<svg width="224.000000" height="33.000000" viewBox="0 0 224 33" fill="none" xmlns="http://www.w3.org/2000/svg" xmlns:xlink="http://www.w3.org/1999/xlink">
	<desc>
			Created with Pixso.
	</desc>
	<defs/>
	<rect id="Rectangle" rx="16.000000" width="32.000000" height="32.000000" fill="#25282C" fill-opacity="1.000000"/>
	<rect id="Rectangle" rx="16.000000" width="32.000000" height="32.000000" stroke="#979797" stroke-opacity="0" stroke-width="0.000000"/>
	<path id="Path" d="M24 11.5C23.4 11.8 22.8 11.89 22.1 12C22.8 11.6 23.3 11 23.5 10.2C22.9 10.6 22.2 10.8 21.4 11C20.8 10.39 19.9 10 19 10C17.29 10 15.8 11.5 15.8 13.3C15.8 13.6 15.8 13.8 15.9 14C13.2 13.89 10.7 12.6 9.09 10.6C8.8 11.1 8.69 11.6 8.69 12.3C8.69 13.39 9.3 14.39 10.2 15C9.69 15 9.19 14.8 8.69 14.6C8.69 16.2 9.8 17.5 11.3 17.79C11 17.89 10.7 17.89 10.4 17.89C10.2 17.89 10 17.89 9.8 17.79C10.2 19.1 11.4 20.1 12.9 20.1C11.8 21 10.4 21.5 8.8 21.5C8.5 21.5 8.3 21.5 8 21.5C9.5 22.39 11.2 23 13 23C19 23 22.3 18 22.3 13.7C22.3 13.6 22.3 13.39 22.3 13.3C23 12.8 23.6 12.2 24 11.5Z" fill="#5D5DFF" fill-opacity="1.000000" fill-rule="nonzero"/>
	<rect id="Rectangle" x="48.000000" y="1.000000" rx="16.000000" width="32.000000" height="32.000000" fill="#25282C" fill-opacity="1.000000"/>
	<rect id="Rectangle" x="48.000000" y="1.000000" rx="16.000000" width="32.000000" height="32.000000" stroke="#979797" stroke-opacity="0" stroke-width="0.000000"/>
	<path id="Path" d="M64 9.2C59.6 9.2 56 12.8 56 17.2C56 20.7 58.3 23.7 61.5 24.8C61.9 24.9 62 24.6 62 24.4C62 24.2 62 23.7 62 23C59.8 23.5 59.3 22 59.3 22C58.9 21.1 58.4 20.8 58.4 20.8C57.7 20.3 58.5 20.3 58.5 20.3C59.3 20.4 59.7 21.1 59.7 21.1C60.4 22.4 61.6 22 62 21.8C62.1 21.3 62.3 20.9 62.5 20.7C60.7 20.5 58.9 19.8 58.9 16.7C58.9 15.8 59.2 15.1 59.7 14.6C59.6 14.4 59.3 13.6 59.8 12.5C59.8 12.5 60.5 12.3 62 13.3C62.6 13.1 63.3 13 64 13C64.69 13 65.4 13.1 66 13.3C67.5 12.3 68.19 12.5 68.19 12.5C68.6 13.6 68.4 14.4 68.3 14.6C68.8 15.2 69.1 15.9 69.1 16.7C69.1 19.8 67.19 20.4 65.4 20.6C65.69 21 66 21.5 66 22.2C66 23.3 66 24.1 66 24.4C66 24.6 66.1 24.9 66.6 24.8C69.8 23.7 72.1 20.7 72.1 17.2C72 12.8 68.4 9.2 64 9.2Z" fill="#5D5DFF" fill-opacity="1.000000" fill-rule="evenodd"/>
	<rect id="Rectangle" x="96.000000" y="1.000000" rx="16.000000" width="32.000000" height="32.000000" fill="#25282C" fill-opacity="1.000000"/>
	<rect id="Rectangle" x="96.000000" y="1.000000" rx="16.000000" width="32.000000" height="32.000000" stroke="#979797" stroke-opacity="0" stroke-width="0.000000"/>
	<path id="Path" d="M110.02 25L110 18L107 18L107 15L110 15L110 13C110 10.3 111.67 9 114.07 9C115.23 9 116.22 9.08 116.51 9.12L116.51 11.94L114.84 11.94C113.53 11.94 113.28 12.56 113.28 13.48L113.28 15L117 15L116 18L113.28 18L113.28 25L110.02 25Z" fill="#5D5DFF" fill-opacity="1.000000" fill-rule="nonzero"/>
	<rect id="Rectangle" x="144.000000" y="1.000000" rx="16.000000" width="32.000000" height="32.000000" fill="#25282C" fill-opacity="1.000000"/>
	<rect id="Rectangle" x="144.000000" y="1.000000" rx="16.000000" width="32.000000" height="32.000000" stroke="#979797" stroke-opacity="0" stroke-width="0.000000"/>
	<circle id="Oval" cx="164.145020" cy="12.892090" r="0.960000" fill="#5D5DFF" fill-opacity="1.000000"/>
	<path id="Shape" d="M156 17C156 19.2061 157.794 21 160 21C162.206 21 164 19.2061 164 17C164 14.7939 162.206 13 160 13C157.794 13 156 14.7939 156 17ZM158 17C158 15.897 158.897 15 160 15C161.103 15 162 15.897 162 17C162 18.103 161.103 19 160 19C158.897 19 158 18.103 158 17Z" clip-rule="evenodd" fill="#5D5DFF" fill-opacity="1.000000" fill-rule="evenodd"/>
	<path id="Shape" d="M156 25L164 25C166.056 25 168 23.0559 168 21L168 13C168 10.9441 166.056 9 164 9L156 9C153.944 9 152 10.9441 152 13L152 21C152 23.0559 153.944 25 156 25ZM154 13C154 12.0649 155.065 11 156 11L164 11C164.935 11 166 12.0649 166 13L166 21C166 21.9351 164.935 23 164 23L156 23C155.047 23 154 21.9529 154 21L154 13Z" clip-rule="evenodd" fill="#5D5DFF" fill-opacity="1.000000" fill-rule="evenodd"/>
	<rect id="Rectangle" x="192.000000" y="1.000000" rx="16.000000" width="32.000000" height="32.000000" fill="#25282C" fill-opacity="1.000000"/>
	<rect id="Rectangle" x="192.000000" y="1.000000" rx="16.000000" width="32.000000" height="32.000000" stroke="#979797" stroke-opacity="0" stroke-width="0.000000"/>
	<path id="Shape" d="M200.7 9L215.3 9C215.7 9 216 9.30005 216.1 9.69995L216.1 24.3C216.1 24.7 215.8 25 215.4 25L200.7 25C200.3 25 200 24.7 200 24.3999L200 9.69995C200 9.30005 200.3 9 200.7 9ZM203.6 14C202.8 14 202.2 13.3 202.2 12.6001C202.2 11.8 202.8 11.2 203.6 11.2C204.4 11.2 205 11.8 205 12.6001C204.9 13.3 204.3 14 203.6 14ZM211.2 22.6001L213.5 22.6001L213.5 18.3999C213.5 16.3999 213.1 14.8 210.7 14.8C209.6 14.8 208.8 15.3999 208.5 16L208.5 15L206.2 15L206.2 22.7L208.6 22.7L208.6 18.8999C208.6 17.8999 208.8 16.8999 210 16.8999C211.2 16.8999 211.2 18 211.2 18.8999L211.2 22.6001ZM202.4 22.6001L204.8 22.6001L204.8 15L202.4 15L202.4 22.6001Z" clip-rule="evenodd" fill="#5D5DFF" fill-opacity="1.000000" fill-rule="evenodd"/>
</svg>
